<svg xmlns="http://www.w3.org/2000/svg" viewBox="0 0 64 64" fill="none">
  <defs>
    <linearGradient id="bulbGradient" x1="0%" y1="0%" x2="100%" y2="100%">
      <stop offset="0%" style="stop-color:#6366f1"/>
      <stop offset="100%" style="stop-color:#9333ea"/>
    </linearGradient>
  </defs>
  <!-- Background circle -->
  <rect width="64" height="64" rx="14" fill="url(#bulbGradient)"/>
  <!-- Lightbulb -->
  <g fill="white">
    <!-- Bulb glass -->
    <path d="M32 12c-8.284 0-15 6.716-15 15 0 5.514 2.978 10.327 7.5 12.93V44c0 1.657 1.343 3 3 3h9c1.657 0 3-1.343 3-3v-4.07c4.522-2.603 7.5-7.416 7.5-12.93 0-8.284-6.716-15-15-15z"/>
    <!-- Base lines -->
    <rect x="25" y="48" width="14" height="2" rx="1"/>
    <rect x="25" y="52" width="14" height="2" rx="1"/>
    <!-- Bottom cap -->
    <path d="M28 56h8v2a2 2 0 01-2 2h-4a2 2 0 01-2-2v-2z"/>
  </g>
  <!-- Rays -->
  <g stroke="white" stroke-width="2" stroke-linecap="round" opacity="0.8">
    <line x1="32" y1="4" x2="32" y2="8"/>
    <line x1="50" y1="10" x2="47" y2="13"/>
    <line x1="56" y1="27" x2="52" y2="27"/>
    <line x1="8" y1="27" x2="12" y2="27"/>
    <line x1="14" y1="10" x2="17" y2="13"/>
  </g>
</svg>
